# xmcd
#
# Track frame offsets:
#	150
#	15148
#	26860
#	40444
#	58289
#	68855
#	80305
#	96160
#	111609
#	127703
#	140234
#	155559
#	175111
#	191607
#
# Disc length: 2706 seconds
#
# Revision: 0
# Processed by: cddbd v1.5.2PL0 Copyright (c) Steve Scherf et al.
# Submitted via: EasyCDDAExtractor 12.0.4.1
#
DISCID=c20a900e
DTITLE=Taxmeni - 40 let /6
DYEAR=2009
DGENRE=Country
TTITLE0=Treti mile
TTITLE1=Proc jenom dabel dnes oblohou vladne
TTITLE2=Vim zes pritel muj
TTITLE3=Ze se vdavas
TTITLE4=Bila hvezda Georgia
TTITLE5=Jezdec dalky
TTITLE6=Sundejte Hartmanna
TTITLE7=Pochod americkych namorniku
TTITLE8=Nejvetsi ten kovboj co jsem znal
TTITLE9=Bismarck
TTITLE10=Jak ty tejdny line jdou
TTITLE11=Desperados, co vlak cekaji
TTITLE12=Sestrelen
TTITLE13=Valcik na rozloucenou
EXTD=
EXTT0=
EXTT1=
EXTT2=
EXTT3=
EXTT4=
EXTT5=
EXTT6=
EXTT7=
EXTT8=
EXTT9=
EXTT10=
EXTT11=
EXTT12=
EXTT13=
PLAYORDER=
